<svg version="1.1" id="Layer_1" xmlns="http://www.w3.org/2000/svg" xmlns:xlink="http://www.w3.org/1999/xlink" x="0px" y="0px"
	 width="100%" viewBox="0 0 3168 1344" enable-background="new 0 0 3168 1344" xml:space="preserve">
	<defs>
		<linearGradient id="text-gradient" x1="0%" y1="0%" x2="100%" y2="0%">
			<stop offset="0%" stop-color="#833AB4" />
			<stop offset="50%" stop-color="#FD1D1D" />
			<stop offset="100%" stop-color="#FCB049" />
		</linearGradient>
	</defs>
<path fill="none" opacity="1.000000" stroke="none" 
	d="
M1966.000000,1346.000000 
	C1310.739014,1346.000000 656.478088,1346.000000 2.108580,1346.000000 
	C2.108580,898.121948 2.108580,450.243896 2.108580,2.182920 
	C1057.761230,2.182920 2113.522461,2.182920 3169.641846,2.182920 
	C3169.641846,449.999786 3169.641846,897.999878 3169.641846,1346.000000 
	C2768.909912,1346.000000 2367.955078,1346.000000 1966.000000,1346.000000 
M614.999817,909.518250 
	C655.656799,909.510010 696.314392,909.387512 736.970337,909.589111 
	C745.187744,909.629883 752.765930,908.870667 758.584656,901.820740 
	C762.952393,908.689209 769.089539,909.280029 775.690918,909.278015 
	C820.683350,909.264099 865.675842,909.382263 910.668274,909.444336 
	C924.328064,909.463135 937.995789,909.725891 951.645386,909.351135 
	C964.189331,909.006653 970.364746,900.674622 967.396118,888.462097 
	C966.144714,883.313965 964.259705,878.280029 962.249817,873.362915 
	C952.085571,848.496460 946.368713,822.559814 943.886597,795.917542 
	C942.250244,778.353577 941.163513,760.731201 940.198914,743.114868 
	C939.699585,733.996033 939.618591,724.812561 940.260681,715.642456 
	C957.772217,714.946289 971.554504,720.182251 983.098145,731.637512 
	C992.031372,740.502258 998.346741,750.956848 1002.667603,762.637634 
	C1012.778198,789.969849 1018.042847,818.411987 1021.839844,847.195129 
	C1023.492004,859.718933 1024.827393,872.352417 1027.597778,884.645081 
	C1031.809326,903.332520 1040.106079,909.353638 1059.437988,909.398193 
	C1099.760864,909.491089 1140.083862,909.484680 1180.406860,909.514587 
	C1191.734863,909.522949 1203.072144,909.227905 1214.388672,909.588562 
	C1228.574829,910.040771 1234.178101,898.232727 1228.044556,886.238708 
	C1226.551392,883.319214 1224.125732,880.886292 1222.216431,878.168152 
	C1214.377075,867.007812 1205.877686,856.238342 1198.899536,844.561096 
	C1184.844727,821.041992 1174.357178,795.849854 1166.007812,769.737793 
	C1159.503418,749.395691 1151.450317,729.660217 1140.489258,711.255554 
	C1119.457397,675.941467 1088.272827,658.229736 1047.196045,657.909424 
	C1040.366211,657.856201 1033.535645,657.901855 1025.278442,657.901855 
	C1039.057007,644.433350 1051.822144,631.990601 1064.548218,619.508118 
	C1089.279663,595.250183 1113.539062,570.487549 1138.854736,546.856140 
	C1158.076416,528.913269 1178.678223,512.452637 1198.551025,495.199951 
	C1202.293701,491.950714 1206.194458,488.521912 1208.809937,484.405640 
	C1215.961426,473.150970 1209.831055,461.936218 1196.536255,461.334747 
	C1191.546509,461.109039 1186.539429,461.258911 1181.540161,461.257812 
	C1129.215698,461.246490 1076.891113,461.176208 1024.566895,461.267761 
	C1007.977722,461.296783 1001.895630,471.377625 1009.105896,486.403961 
	C1011.122681,490.606873 1013.467285,494.663635 1015.295898,498.943665 
	C1021.270386,512.927612 1024.770020,527.473267 1022.826111,542.736267 
	C1020.867554,558.114197 1015.775146,572.499023 1007.159729,585.523010 
	C990.786865,610.273865 969.944031,630.677612 946.166870,648.216492 
	C944.479248,649.461304 942.506287,650.319275 940.175171,651.633911 
	C940.054871,649.326904 939.924011,648.010498 939.926392,646.694397 
	C940.088989,556.091980 938.227112,465.439331 946.179626,375.021667 
	C947.724731,357.453857 950.165588,339.964355 951.678650,322.394409 
	C952.558838,312.173920 953.734558,301.692261 952.415649,291.637939 
	C950.558838,277.482971 940.925415,270.143799 926.626221,270.402313 
	C920.758057,270.508453 914.759949,271.967010 909.101685,273.717773 
	C877.928101,283.363281 846.868652,293.376678 815.713135,303.081329 
	C800.773071,307.735016 785.678284,311.889923 770.706421,316.444305 
	C751.260132,322.359741 745.300476,334.333710 752.426636,353.190826 
	C754.306030,358.164032 756.912170,362.858124 758.922119,367.787445 
	C763.314514,378.559570 768.207092,389.189209 771.701538,400.254059 
	C780.914612,429.426697 783.518982,459.647339 783.970398,490.036499 
	C784.475159,524.011414 784.573730,557.995361 784.522339,591.974854 
	C784.436646,648.606995 784.437195,705.242981 783.738159,761.869141 
	C783.237000,802.471191 776.834290,842.110596 760.596619,879.714905 
	C759.789734,881.583496 758.744934,883.349426 756.703125,887.314209 
	C744.380676,863.567017 732.209473,842.120178 721.891724,819.815857 
	C699.336487,771.057678 683.323730,719.855164 667.879944,668.522949 
	C638.054565,569.388794 608.598267,470.143585 578.872070,370.979492 
	C574.673340,356.972931 570.489502,342.895203 565.078186,329.337555 
	C559.612122,315.642700 548.756836,309.222809 533.626526,309.252533 
	C484.313538,309.349457 434.999817,309.015625 385.686249,308.887726 
	C370.476349,308.848297 363.220123,317.782776 366.357178,332.860168 
	C367.439331,338.061188 369.059753,343.161804 370.632812,348.246857 
	C374.914185,362.087006 377.378967,376.307678 375.414307,390.635345 
	C373.204529,406.750458 370.571533,422.959503 366.214661,438.596039 
	C357.643433,469.357788 347.856659,499.784119 338.386841,530.291565 
	C317.857178,596.429077 297.760681,662.708374 276.438721,728.590454 
	C259.175842,781.930603 238.009094,833.666138 206.168167,880.370605 
	C204.143265,883.340759 202.518997,886.837402 201.691101,890.322510 
	C199.264740,900.536560 204.872238,908.144775 215.293686,909.297241 
	C217.602173,909.552490 219.954025,909.443665 222.286118,909.452942 
	C254.612305,909.581299 286.938477,909.761108 319.264771,909.800598 
	C339.259949,909.825073 359.260345,909.870789 379.249115,909.458618 
	C393.850677,909.157593 400.033905,899.225769 394.379181,885.754456 
	C392.710876,881.780090 390.260437,878.141418 388.409515,874.234680 
	C383.569122,864.017822 377.984863,854.044434 374.271667,843.423523 
	C364.461212,815.362183 361.827515,786.257324 364.159698,756.711304 
	C364.782227,748.824585 366.256439,741.005188 367.353271,733.056091 
	C417.939880,733.056091 467.730621,733.056091 517.993896,733.056091 
	C520.389038,743.289185 523.064941,752.914307 524.854919,762.701477 
	C530.718384,794.761108 532.447205,826.831299 524.061401,858.816101 
	C521.446289,868.790527 518.764893,878.778748 516.868530,888.902039 
	C514.709900,900.425110 521.311157,908.362061 533.020386,909.326477 
	C535.008423,909.490234 537.017517,909.418640 539.016846,909.421509 
	C563.677795,909.456726 588.338806,909.485657 614.999817,909.518250 
M1728.999878,909.566406 
	C1754.326538,909.568909 1779.653198,909.603821 1804.979614,909.537720 
	C1808.622192,909.528259 1812.350708,909.438049 1815.888306,908.680298 
	C1824.867920,906.756714 1829.220947,901.222107 1828.020386,892.165405 
	C1827.244019,886.308594 1825.034302,880.611938 1823.191772,874.932800 
	C1819.599731,863.861267 1815.289429,852.996704 1812.207764,841.790344 
	C1802.944580,808.106567 1801.743286,773.313416 1800.608398,738.788574 
	C1799.472168,704.222351 1798.603394,669.504578 1802.332275,634.943176 
	C1804.451904,615.295349 1807.673950,595.987915 1818.231079,578.730347 
	C1826.954102,564.471130 1839.900269,558.577209 1856.242676,559.690918 
	C1871.772461,560.749084 1881.959839,569.290833 1888.416016,583.045532 
	C1895.621704,598.396912 1899.105713,614.839111 1899.345703,631.450745 
	C1900.005005,677.088684 1900.183350,722.757690 1899.222290,768.386414 
	C1898.575562,799.094910 1893.394287,829.358948 1883.527588,858.628418 
	C1880.657349,867.142944 1877.256226,875.491333 1874.687134,884.091736 
	C1869.695557,900.802246 1875.935913,909.203979 1893.119507,909.512512 
	C1895.451782,909.554382 1897.785522,909.509644 1900.118652,909.513977 
	C1950.111206,909.605652 2000.103882,909.710815 2050.096436,909.775940 
	C2056.426758,909.784180 2062.774902,909.844360 2069.084473,909.423279 
	C2080.810791,908.640503 2086.448242,901.480225 2084.279297,889.820068 
	C2083.439941,885.308899 2081.427979,881.001526 2079.814697,876.651489 
	C2075.997070,866.357178 2071.437744,856.286987 2068.350586,845.781738 
	C2057.055420,807.348145 2055.506104,767.675598 2054.796387,728.014954 
	C2054.182617,693.706970 2055.192139,659.360474 2054.130859,625.072876 
	C2053.128418,592.686829 2048.790771,560.634827 2036.401489,530.267700 
	C2024.987549,502.290955 2007.722900,479.189209 1980.242676,465.097656 
	C1952.655884,450.951447 1923.280396,448.938660 1893.558960,455.096558 
	C1851.696411,463.769897 1823.601318,490.268555 1804.591064,527.485229 
	C1803.618286,529.389587 1802.754639,531.349670 1801.840332,533.283752 
	C1800.443481,524.142212 1801.037598,515.395569 1801.214111,506.640533 
	C1802.442139,445.678040 1803.663208,384.726288 1812.035278,324.177002 
	C1813.352173,314.652893 1814.199829,304.900391 1813.729004,295.328979 
	C1812.912231,278.719238 1801.761353,269.367889 1785.159790,270.289825 
	C1781.544312,270.490662 1777.885254,271.277313 1774.408936,272.331055 
	C1767.083008,274.551880 1759.740723,276.812531 1752.622559,279.609863 
	C1707.559692,297.318634 1660.532837,305.824219 1612.552368,310.243622 
	C1589.668579,312.351379 1566.981689,315.299164 1545.215088,323.780029 
	C1499.884766,341.442078 1473.252563,383.076569 1477.642212,431.465424 
	C1478.438477,440.243073 1480.722168,448.885834 1482.420898,458.145630 
	C1480.966309,458.065826 1479.709106,458.080261 1478.475708,457.916687 
	C1459.683472,455.424194 1440.956665,451.554535 1422.091309,450.687561 
	C1385.859131,449.022491 1350.233765,453.550476 1316.324219,467.384125 
	C1287.234131,479.251678 1262.897827,497.150116 1246.219727,524.370789 
	C1232.795654,546.280640 1226.893555,570.320129 1226.833984,595.779968 
	C1226.770874,622.718811 1233.011108,647.960632 1249.192627,670.070435 
	C1265.304810,692.085449 1286.363525,708.483582 1310.749756,719.866638 
	C1339.685425,733.373230 1369.400146,745.229248 1398.912598,757.474487 
	C1415.274170,764.263184 1431.468872,771.201050 1445.069824,782.915527 
	C1456.358154,792.638062 1462.168945,804.945984 1461.681030,819.871033 
	C1461.243652,833.249878 1456.563354,844.837830 1444.569702,851.907959 
	C1423.735840,864.189270 1393.664429,861.164124 1378.221924,839.439209 
	C1375.144287,835.109375 1371.986450,830.728516 1369.690552,825.972961 
	C1364.482178,815.184875 1359.966187,804.064453 1354.850220,793.229492 
	C1339.957275,761.688965 1311.453613,745.596008 1277.955078,749.607849 
	C1249.830566,752.976135 1228.492432,772.326172 1223.190063,800.117798 
	C1218.043457,827.093323 1228.428711,849.106201 1246.743042,868.009216 
	C1262.400024,884.169556 1282.148682,894.043762 1302.803101,901.823303 
	C1340.705811,916.099487 1380.233398,921.468201 1420.555908,920.012085 
	C1455.050659,918.766357 1488.874512,913.333801 1520.477417,898.417297 
	C1572.962280,873.644531 1602.873535,832.615540 1605.642578,774.327332 
	C1607.973755,725.254272 1587.641968,686.511108 1546.328857,659.245850 
	C1519.938232,641.828796 1490.302856,631.599854 1461.136719,620.181213 
	C1439.776001,611.818359 1418.822021,602.354004 1397.997681,592.709167 
	C1387.574341,587.881531 1379.397461,579.885925 1373.417236,569.906006 
	C1362.708984,552.035828 1368.315308,527.541260 1385.492676,517.043335 
	C1402.617310,506.577393 1426.554810,510.462006 1438.548584,526.639587 
	C1444.027100,534.029175 1447.694214,542.791748 1451.941162,551.055786 
	C1456.195923,559.335144 1459.432861,568.220886 1464.367920,576.051758 
	C1479.823853,600.576904 1502.100586,611.634949 1531.259644,608.515137 
	C1571.903931,604.166565 1596.509644,564.849609 1582.682861,526.589661 
	C1578.046021,513.759033 1570.493164,503.111572 1561.721191,492.915009 
	C1553.705444,483.597260 1545.844604,474.013977 1539.095215,463.770447 
	C1529.475708,449.170654 1525.212891,432.858612 1527.814453,415.223846 
	C1531.107056,392.905487 1544.112427,378.008392 1564.953857,371.114166 
	C1585.407104,364.348358 1604.442871,367.775909 1619.781616,384.471313 
	C1626.938354,392.261139 1631.519043,401.395691 1634.542480,411.383453 
	C1642.630005,438.100586 1645.248535,465.665192 1645.374878,493.334473 
	C1645.765991,578.990417 1646.039185,664.654236 1645.268677,750.305176 
	C1644.862183,795.495544 1638.662598,839.903992 1620.084717,881.908569 
	C1613.441772,896.928101 1617.690308,910.127441 1639.011963,909.663391 
	C1668.328125,909.025452 1697.669312,909.543518 1728.999878,909.566406 
M2658.808350,1095.880859 
	C2683.443359,1086.759399 2703.638184,1071.494873 2720.722900,1051.711060 
	C2740.344482,1028.989868 2754.041748,1002.713867 2765.938721,975.541016 
	C2787.729980,925.770569 2804.240723,874.012085 2821.944092,822.716125 
	C2843.556641,760.094666 2864.678467,697.301086 2886.729736,634.835083 
	C2898.482178,601.542786 2911.961182,568.839478 2929.069336,537.870728 
	C2937.587402,522.451233 2947.501709,507.797241 2956.931641,492.890167 
	C2960.539307,487.186798 2963.951172,481.535156 2963.494385,474.428528 
	C2962.993896,466.636597 2958.842529,462.209717 2951.079346,461.401031 
	C2949.097168,461.194489 2947.083984,461.245209 2945.085205,461.239044 
	C2897.444092,461.092651 2849.802734,460.934692 2802.161621,460.851593 
	C2798.177734,460.844666 2794.160645,461.121521 2790.215820,461.673370 
	C2783.789307,462.572449 2779.638916,466.736481 2779.277832,472.885559 
	C2778.979248,477.966461 2780.051025,483.439209 2781.837402,488.247101 
	C2783.783936,493.485168 2787.347900,498.106232 2790.044434,503.084229 
	C2806.050781,532.629395 2812.032227,564.096008 2809.089844,597.579224 
	C2806.922607,622.243469 2802.122070,646.335449 2795.585938,670.120605 
	C2786.421143,703.471863 2776.982666,736.748047 2767.661133,770.056274 
	C2763.505371,762.588257 2760.711914,754.902344 2758.263428,747.108032 
	C2746.489502,709.631592 2734.713623,672.155212 2723.132568,634.618958 
	C2716.749268,613.929504 2711.242676,593.018372 2708.846924,571.404358 
	C2706.046387,546.139648 2708.746582,521.568726 2717.661133,497.712524 
	C2719.406494,493.041290 2721.234863,488.363220 2722.469238,483.545837 
	C2726.095215,469.396484 2720.130127,461.395752 2705.789795,461.228943 
	C2683.809570,460.973267 2661.826660,460.873962 2639.844482,460.832794 
	C2603.531250,460.764740 2567.218262,460.759705 2530.905029,460.809662 
	C2521.247314,460.822968 2511.565430,460.762054 2501.939453,461.406799 
	C2491.336914,462.116943 2486.623047,468.969025 2489.441895,479.358002 
	C2490.552490,483.450714 2492.582275,487.446167 2494.890381,491.037994 
	C2517.330566,525.958313 2535.002197,563.308411 2548.879395,602.243835 
	C2571.005859,664.323914 2591.758057,726.893921 2613.071533,789.263428 
	C2622.221924,816.039734 2631.635986,842.731506 2640.354248,869.648132 
	C2648.313232,894.220581 2668.618408,903.115662 2687.147461,903.347717 
	C2697.475098,903.477112 2707.806396,903.292786 2718.136230,903.254272 
	C2720.642334,903.244873 2723.148438,903.252808 2726.263916,903.252808 
	C2725.684326,905.428772 2725.536133,906.752136 2724.996582,907.890137 
	C2719.580566,919.316101 2714.553467,930.960205 2708.484131,942.031433 
	C2704.196777,949.851990 2699.166992,957.504333 2693.246826,964.141907 
	C2680.195312,978.774841 2665.110596,980.408630 2648.604980,969.745667 
	C2643.022705,966.139526 2637.945801,961.761108 2632.486328,957.953247 
	C2605.437256,939.087891 2571.746826,942.785706 2548.867920,966.416809 
	C2516.233643,1000.123962 2519.495117,1071.666016 2579.110840,1095.711914 
	C2604.971924,1106.142944 2631.166748,1105.307617 2658.808350,1095.880859 
M2504.145020,828.596191 
	C2500.276611,808.586853 2498.601562,788.357788 2498.459229,768.012329 
	C2498.187012,729.024658 2497.961182,690.035522 2497.982910,651.047119 
	C2497.997559,624.920471 2495.147705,599.213501 2488.261475,573.982849 
	C2478.708252,538.981140 2461.843506,508.675323 2432.260010,486.490662 
	C2410.767090,470.373108 2386.442627,460.987610 2360.255615,455.899780 
	C2326.917969,449.422668 2293.404297,448.651733 2259.809082,453.130219 
	C2232.321289,456.794586 2205.270264,462.507507 2180.175781,474.881653 
	C2157.470947,486.077454 2136.990967,500.009613 2124.335693,523.027161 
	C2110.785645,547.671997 2112.205566,577.710022 2128.088867,597.407166 
	C2151.471680,626.404541 2200.239014,629.855286 2227.624268,604.543579 
	C2240.604248,592.546265 2247.089844,577.140015 2252.094482,560.638611 
	C2255.358643,549.876709 2258.518311,538.641724 2264.270264,529.163452 
	C2278.247803,506.130157 2308.837646,506.116669 2324.457031,528.116211 
	C2332.073975,538.844238 2335.113281,551.078674 2335.938721,563.799011 
	C2337.230957,583.712036 2329.998291,599.852051 2312.156006,609.867554 
	C2303.779053,614.569641 2294.942627,618.734375 2285.873535,621.866638 
	C2262.911865,629.797363 2239.557129,636.595642 2216.630127,644.619629 
	C2193.688232,652.648865 2171.341797,661.923523 2151.014648,675.837097 
	C2084.264160,721.526733 2080.757324,805.833374 2113.606934,859.671631 
	C2134.942627,894.639343 2167.097412,913.986694 2207.433838,918.801941 
	C2261.170166,925.216858 2309.346680,906.771545 2339.609375,855.620911 
	C2341.542725,852.353577 2343.434570,849.061829 2346.197510,844.319580 
	C2346.862793,848.589661 2347.097900,851.178528 2347.687012,853.684143 
	C2349.816650,862.740479 2351.412109,871.992249 2354.410156,880.759583 
	C2359.975342,897.032715 2371.737305,906.395996 2388.901611,908.644653 
	C2392.523438,909.119141 2396.192139,909.441345 2399.841797,909.466003 
	C2427.832031,909.655334 2455.822998,909.799438 2483.813721,909.854248 
	C2492.807617,909.871887 2501.830811,909.979675 2510.789307,909.335510 
	C2524.243652,908.368103 2530.582275,897.340820 2525.150879,885.098206 
	C2524.611572,883.882568 2523.980957,882.696533 2523.285156,881.562927 
	C2513.562988,865.730652 2507.937256,848.393677 2504.145020,828.596191 
z"/>
<path fill="#0ce00c" opacity="1.000000" stroke="none" 
	d="
M613.999756,909.517212 
	C588.338806,909.485657 563.677795,909.456726 539.016846,909.421509 
	C537.017517,909.418640 535.008423,909.490234 533.020386,909.326477 
	C521.311157,908.362061 514.709900,900.425110 516.868530,888.902039 
	C518.764893,878.778748 521.446289,868.790527 524.061401,858.816101 
	C532.447205,826.831299 530.718384,794.761108 524.854919,762.701477 
	C523.064941,752.914307 520.389038,743.289185 517.993896,733.056091 
	C467.730621,733.056091 417.939880,733.056091 367.353271,733.056091 
	C366.256439,741.005188 364.782227,748.824585 364.159698,756.711304 
	C361.827515,786.257324 364.461212,815.362183 374.271667,843.423523 
	C377.984863,854.044434 383.569122,864.017822 388.409515,874.234680 
	C390.260437,878.141418 392.710876,881.780090 394.379181,885.754456 
	C400.033905,899.225769 393.850677,909.157593 379.249115,909.458618 
	C359.260345,909.870789 339.259949,909.825073 319.264771,909.800598 
	C286.938477,909.761108 254.612305,909.581299 222.286118,909.452942 
	C219.954025,909.443665 217.602173,909.552490 215.293686,909.297241 
	C204.872238,908.144775 199.264740,900.536560 201.691101,890.322510 
	C202.518997,886.837402 204.143265,883.340759 206.168167,880.370605 
	C238.009094,833.666138 259.175842,781.930603 276.438721,728.590454 
	C297.760681,662.708374 317.857178,596.429077 338.386841,530.291565 
	C347.856659,499.784119 357.643433,469.357788 366.214661,438.596039 
	C370.571533,422.959503 373.204529,406.750458 375.414307,390.635345 
	C377.378967,376.307678 374.914185,362.087006 370.632812,348.246857 
	C369.059753,343.161804 367.439331,338.061188 366.357178,332.860168 
	C363.220123,317.782776 370.476349,308.848297 385.686249,308.887726 
	C434.999817,309.015625 484.313538,309.349457 533.626526,309.252533 
	C548.756836,309.222809 559.612122,315.642700 565.078186,329.337555 
	C570.489502,342.895203 574.673340,356.972931 578.872070,370.979492 
	C608.598267,470.143585 638.054565,569.388794 667.879944,668.522949 
	C683.323730,719.855164 699.336487,771.057678 721.891724,819.815857 
	C732.209473,842.120178 744.380676,863.567017 756.703125,887.314209 
	C758.744934,883.349426 759.789734,881.583496 760.596619,879.714905 
	C776.834290,842.110596 783.237000,802.471191 783.738159,761.869141 
	C784.437195,705.242981 784.436646,648.606995 784.522339,591.974854 
	C784.573730,557.995361 784.475159,524.011414 783.970398,490.036499 
	C783.518982,459.647339 780.914612,429.426697 771.701538,400.254059 
	C768.207092,389.189209 763.314514,378.559570 758.922119,367.787445 
	C756.912170,362.858124 754.306030,358.164032 752.426636,353.190826 
	C745.300476,334.333710 751.260132,322.359741 770.706421,316.444305 
	C785.678284,311.889923 800.773071,307.735016 815.713135,303.081329 
	C846.868652,293.376678 877.928101,283.363281 909.101685,273.717773 
	C914.759949,271.967010 920.758057,270.508453 926.626221,270.402313 
	C940.925415,270.143799 950.558838,277.482971 952.415649,291.637939 
	C953.734558,301.692261 952.558838,312.173920 951.678650,322.394409 
	C950.165588,339.964355 947.724731,357.453857 946.179626,375.021667 
	C938.227112,465.439331 940.088989,556.091980 939.926392,646.694397 
	C939.924011,648.010498 940.054871,649.326904 940.175171,651.633911 
	C942.506287,650.319275 944.479248,649.461304 946.166870,648.216492 
	C969.944031,630.677612 990.786865,610.273865 1007.159729,585.523010 
	C1015.775146,572.499023 1020.867554,558.114197 1022.826111,542.736267 
	C1024.770020,527.473267 1021.270386,512.927612 1015.295898,498.943665 
	C1013.467285,494.663635 1011.122681,490.606873 1009.105896,486.403961 
	C1001.895630,471.377625 1007.977722,461.296783 1024.566895,461.267761 
	C1076.891113,461.176208 1129.215698,461.246490 1181.540161,461.257812 
	C1186.539429,461.258911 1191.546509,461.109039 1196.536255,461.334747 
	C1209.831055,461.936218 1215.961426,473.150970 1208.809937,484.405640 
	C1206.194458,488.521912 1202.293701,491.950714 1198.551025,495.199951 
	C1178.678223,512.452637 1158.076416,528.913269 1138.854736,546.856140 
	C1113.539062,570.487549 1089.279663,595.250183 1064.548218,619.508118 
	C1051.822144,631.990601 1039.057007,644.433350 1025.278442,657.901855 
	C1033.535645,657.901855 1040.366211,657.856201 1047.196045,657.909424 
	C1088.272827,658.229736 1119.457397,675.941467 1140.489258,711.255554 
	C1151.450317,729.660217 1159.503418,749.395691 1166.007812,769.737793 
	C1174.357178,795.849854 1184.844727,821.041992 1198.899536,844.561096 
	C1205.877686,856.238342 1214.377075,867.007812 1222.216431,878.168152 
	C1224.125732,880.886292 1226.551392,883.319214 1228.044556,886.238708 
	C1234.178101,898.232727 1228.574829,910.040771 1214.388672,909.588562 
	C1203.072144,909.227905 1191.734863,909.522949 1180.406860,909.514587 
	C1140.083862,909.484680 1099.760864,909.491089 1059.437988,909.398193 
	C1040.106079,909.353638 1031.809326,903.332520 1027.597778,884.645081 
	C1024.827393,872.352417 1023.492004,859.718933 1021.839844,847.195129 
	C1018.042847,818.411987 1012.778198,789.969849 1002.667603,762.637634 
	C998.346741,750.956848 992.031372,740.502258 983.098145,731.637512 
	C971.554504,720.182251 957.772217,714.946289 940.260681,715.642456 
	C939.618591,724.812561 939.699585,733.996033 940.198914,743.114868 
	C941.163513,760.731201 942.250244,778.353577 943.886597,795.917542 
	C946.368713,822.559814 952.085571,848.496460 962.249817,873.362915 
	C964.259705,878.280029 966.144714,883.313965 967.396118,888.462097 
	C970.364746,900.674622 964.189331,909.006653 951.645386,909.351135 
	C937.995789,909.725891 924.328064,909.463135 910.668274,909.444336 
	C865.675842,909.382263 820.683350,909.264099 775.690918,909.278015 
	C769.089539,909.280029 762.952393,908.689209 758.584656,901.820740 
	C752.765930,908.870667 745.187744,909.629883 736.970337,909.589111 
	C696.314392,909.387512 655.656799,909.510010 613.999756,909.517212 
M387.451569,644.153625 
	C385.777069,650.104797 384.102600,656.055969 382.192810,662.843384 
	C422.374359,662.843384 461.138611,662.843384 500.917450,662.843384 
	C481.058441,591.345276 461.401062,520.573120 441.743683,449.800964 
	C440.825531,449.784027 439.907379,449.767120 438.989197,449.750183 
	C422.047485,514.059204 404.774536,578.277771 387.451569,644.153625 
z"/>
<path fill="#085208" opacity="1.000000" stroke="none" 
	d="
M1727.999756,909.566345 
	C1697.669312,909.543518 1668.328125,909.025452 1639.011963,909.663391 
	C1617.690308,910.127441 1613.441772,896.928101 1620.084717,881.908569 
	C1638.662598,839.903992 1644.862183,795.495544 1645.268677,750.305176 
	C1646.039185,664.654236 1645.765991,578.990417 1645.374878,493.334473 
	C1645.248535,465.665192 1642.630005,438.100586 1634.542480,411.383453 
	C1631.519043,401.395691 1626.938354,392.261139 1619.781616,384.471313 
	C1604.442871,367.775909 1585.407104,364.348358 1564.953857,371.114166 
	C1544.112427,378.008392 1531.107056,392.905487 1527.814453,415.223846 
	C1525.212891,432.858612 1529.475708,449.170654 1539.095215,463.770447 
	C1545.844604,474.013977 1553.705444,483.597260 1561.721191,492.915009 
	C1570.493164,503.111572 1578.046021,513.759033 1582.682861,526.589661 
	C1596.509644,564.849609 1571.903931,604.166565 1531.259644,608.515137 
	C1502.100586,611.634949 1479.823853,600.576904 1464.367920,576.051758 
	C1459.432861,568.220886 1456.195923,559.335144 1451.941162,551.055786 
	C1447.694214,542.791748 1444.027100,534.029175 1438.548584,526.639587 
	C1426.554810,510.462006 1402.617310,506.577393 1385.492676,517.043335 
	C1368.315308,527.541260 1362.708984,552.035828 1373.417236,569.906006 
	C1379.397461,579.885925 1387.574341,587.881531 1397.997681,592.709167 
	C1418.822021,602.354004 1439.776001,611.818359 1461.136719,620.181213 
	C1490.302856,631.599854 1519.938232,641.828796 1546.328857,659.245850 
	C1587.641968,686.511108 1607.973755,725.254272 1605.642578,774.327332 
	C1602.873535,832.615540 1572.962280,873.644531 1520.477417,898.417297 
	C1488.874512,913.333801 1455.050659,918.766357 1420.555908,920.012085 
	C1380.233398,921.468201 1340.705811,916.099487 1302.803101,901.823303 
	C1282.148682,894.043762 1262.400024,884.169556 1246.743042,868.009216 
	C1228.428711,849.106201 1218.043457,827.093323 1223.190063,800.117798 
	C1228.492432,772.326172 1249.830566,752.976135 1277.955078,749.607849 
	C1311.453613,745.596008 1339.957275,761.688965 1354.850220,793.229492 
	C1359.966187,804.064453 1364.482178,815.184875 1369.690552,825.972961 
	C1371.986450,830.728516 1375.144287,835.109375 1378.221924,839.439209 
	C1393.664429,861.164124 1423.735840,864.189270 1444.569702,851.907959 
	C1456.563354,844.837830 1461.243652,833.249878 1461.681030,819.871033 
	C1462.168945,804.945984 1456.358154,792.638062 1445.069824,782.915527 
	C1431.468872,771.201050 1415.274170,764.263184 1398.912598,757.474487 
	C1369.400146,745.229248 1339.685425,733.373230 1310.749756,719.866638 
	C1286.363525,708.483582 1265.304810,692.085449 1249.192627,670.070435 
	C1233.011108,647.960632 1226.770874,622.718811 1226.833984,595.779968 
	C1226.893555,570.320129 1232.795654,546.280640 1246.219727,524.370789 
	C1262.897827,497.150116 1287.234131,479.251678 1316.324219,467.384125 
	C1350.233765,453.550476 1385.859131,449.022491 1422.091309,450.687561 
	C1440.956665,451.554535 1459.683472,455.424194 1478.475708,457.916687 
	C1479.709106,458.080261 1480.966309,458.065826 1482.420898,458.145630 
	C1480.722168,448.885834 1478.438477,440.243073 1477.642212,431.465424 
	C1473.252563,383.076569 1499.884766,341.442078 1545.215088,323.780029 
	C1566.981689,315.299164 1589.668579,312.351379 1612.552368,310.243622 
	C1660.532837,305.824219 1707.559692,297.318634 1752.622559,279.609863 
	C1759.740723,276.812531 1767.083008,274.551880 1774.408936,272.331055 
	C1777.885254,271.277313 1781.544312,270.490662 1785.159790,270.289825 
	C1801.761353,269.367889 1812.912231,278.719238 1813.729004,295.328979 
	C1814.199829,304.900391 1813.352173,314.652893 1812.035278,324.177002 
	C1803.663208,384.726288 1802.442139,445.678040 1801.214111,506.640533 
	C1801.037598,515.395569 1800.443481,524.142212 1801.840332,533.283752 
	C1802.754639,531.349670 1803.618286,529.389587 1804.591064,527.485229 
	C1823.601318,490.268555 1851.696411,463.769897 1893.558960,455.096558 
	C1923.280396,448.938660 1952.655884,450.951447 1980.242676,465.097656 
	C2007.722900,479.189209 2024.987549,502.290955 2036.401489,530.267700 
	C2048.790771,560.634827 2053.128418,592.686829 2054.130859,625.072876 
	C2055.192139,659.360474 2054.182617,693.706970 2054.796387,728.014954 
	C2055.506104,767.675598 2057.055420,807.348145 2068.350586,845.781738 
	C2071.437744,856.286987 2075.997070,866.357178 2079.814697,876.651489 
	C2081.427979,881.001526 2083.439941,885.308899 2084.279297,889.820068 
	C2086.448242,901.480225 2080.810791,908.640503 2069.084473,909.423279 
	C2062.774902,909.844360 2056.426758,909.784180 2050.096436,909.775940 
	C2000.103882,909.710815 1950.111206,909.605652 1900.118652,909.513977 
	C1897.785522,909.509644 1895.451782,909.554382 1893.119507,909.512512 
	C1875.935913,909.203979 1869.695557,900.802246 1874.687134,884.091736 
	C1877.256226,875.491333 1880.657349,867.142944 1883.527588,858.628418 
	C1893.394287,829.358948 1898.575562,799.094910 1899.222290,768.386414 
	C1900.183350,722.757690 1900.005005,677.088684 1899.345703,631.450745 
	C1899.105713,614.839111 1895.621704,598.396912 1888.416016,583.045532 
	C1881.959839,569.290833 1871.772461,560.749084 1856.242676,559.690918 
	C1839.900269,558.577209 1826.954102,564.471130 1818.231079,578.730347 
	C1807.673950,595.987915 1804.451904,615.295349 1802.332275,634.943176 
	C1798.603394,669.504578 1799.472168,704.222351 1800.608398,738.788574 
	C1801.743286,773.313416 1802.944580,808.106567 1812.207764,841.790344 
	C1815.289429,852.996704 1819.599731,863.861267 1823.191772,874.932800 
	C1825.034302,880.611938 1827.244019,886.308594 1828.020386,892.165405 
	C1829.220947,901.222107 1824.867920,906.756714 1815.888306,908.680298 
	C1812.350708,909.438049 1808.622192,909.528259 1804.979614,909.537720 
	C1779.653198,909.603821 1754.326538,909.568909 1727.999756,909.566345 
z"/>
<path fill="#15ff8a" opacity="1.000000" stroke="none" 
	d="
M2658.059082,1096.120972 
	C2631.166748,1105.307617 2604.971924,1106.142944 2579.110840,1095.711914 
	C2519.495117,1071.666016 2516.233643,1000.123962 2548.867920,966.416809 
	C2571.746826,942.785706 2605.437256,939.087891 2632.486328,957.953247 
	C2637.945801,961.761108 2643.022705,966.139526 2648.604980,969.745667 
	C2665.110596,980.408630 2680.195312,978.774841 2693.246826,964.141907 
	C2699.166992,957.504333 2704.196777,949.851990 2708.484131,942.031433 
	C2714.553467,930.960205 2719.580566,919.316101 2724.996582,907.890137 
	C2725.536133,906.752136 2725.684326,905.428772 2726.263916,903.252808 
	C2723.148438,903.252808 2720.642334,903.244873 2718.136230,903.254272 
	C2707.806396,903.292786 2697.475098,903.477112 2687.147461,903.347717 
	C2668.618408,903.115662 2648.313232,894.220581 2640.354248,869.648132 
	C2631.635986,842.731506 2622.221924,816.039734 2613.071533,789.263428 
	C2591.758057,726.893921 2571.005859,664.323914 2548.879395,602.243835 
	C2535.002197,563.308411 2517.330566,525.958313 2494.890381,491.037994 
	C2492.582275,487.446167 2490.552490,483.450714 2489.441895,479.358002 
	C2486.623047,468.969025 2491.336914,462.116943 2501.939453,461.406799 
	C2511.565430,460.762054 2521.247314,460.822968 2530.905029,460.809662 
	C2567.218262,460.759705 2603.531250,460.764740 2639.844482,460.832794 
	C2661.826660,460.873962 2683.809570,460.973267 2705.789795,461.228943 
	C2720.130127,461.395752 2726.095215,469.396484 2722.469238,483.545837 
	C2721.234863,488.363220 2719.406494,493.041290 2717.661133,497.712524 
	C2708.746582,521.568726 2706.046387,546.139648 2708.846924,571.404358 
	C2711.242676,593.018372 2716.749268,613.929504 2723.132568,634.618958 
	C2734.713623,672.155212 2746.489502,709.631592 2758.263428,747.108032 
	C2760.711914,754.902344 2763.505371,762.588257 2767.661133,770.056274 
	C2776.982666,736.748047 2786.421143,703.471863 2795.585938,670.120605 
	C2802.122070,646.335449 2806.922607,622.243469 2809.089844,597.579224 
	C2812.032227,564.096008 2806.050781,532.629395 2790.044434,503.084229 
	C2787.347900,498.106232 2783.783936,493.485168 2781.837402,488.247101 
	C2780.051025,483.439209 2778.979248,477.966461 2779.277832,472.885559 
	C2779.638916,466.736481 2783.789307,462.572449 2790.215820,461.673370 
	C2794.160645,461.121521 2798.177734,460.844666 2802.161621,460.851593 
	C2849.802734,460.934692 2897.444092,461.092651 2945.085205,461.239044 
	C2947.083984,461.245209 2949.097168,461.194489 2951.079346,461.401031 
	C2958.842529,462.209717 2962.993896,466.636597 2963.494385,474.428528 
	C2963.951172,481.535156 2960.539307,487.186798 2956.931641,492.890167 
	C2947.501709,507.797241 2937.587402,522.451233 2929.069336,537.870728 
	C2911.961182,568.839478 2898.482178,601.542786 2886.729736,634.835083 
	C2864.678467,697.301086 2843.556641,760.094666 2821.944092,822.716125 
	C2804.240723,874.012085 2787.729980,925.770569 2765.938721,975.541016 
	C2754.041748,1002.713867 2740.344482,1028.989868 2720.722900,1051.711060 
	C2703.638184,1071.494873 2683.443359,1086.759399 2658.059082,1096.120972 
z"/>
<path fill="#22ca22" opacity="1.000000" stroke="none" 
	d="
M2504.273438,829.440674 
	C2507.937256,848.393677 2513.562988,865.730652 2523.285156,881.562927 
	C2523.980957,882.696533 2524.611572,883.882568 2525.150879,885.098206 
	C2530.582275,897.340820 2524.243652,908.368103 2510.789307,909.335510 
	C2501.830811,909.979675 2492.807617,909.871887 2483.813721,909.854248 
	C2455.822998,909.799438 2427.832031,909.655334 2399.841797,909.466003 
	C2396.192139,909.441345 2392.523438,909.119141 2388.901611,908.644653 
	C2371.737305,906.395996 2359.975342,897.032715 2354.410156,880.759583 
	C2351.412109,871.992249 2349.816650,862.740479 2347.687012,853.684143 
	C2347.097900,851.178528 2346.862793,848.589661 2346.197510,844.319580 
	C2343.434570,849.061829 2341.542725,852.353577 2339.609375,855.620911 
	C2309.346680,906.771545 2261.170166,925.216858 2207.433838,918.801941 
	C2167.097412,913.986694 2134.942627,894.639343 2113.606934,859.671631 
	C2080.757324,805.833374 2084.264160,721.526733 2151.014648,675.837097 
	C2171.341797,661.923523 2193.688232,652.648865 2216.630127,644.619629 
	C2239.557129,636.595642 2262.911865,629.797363 2285.873535,621.866638 
	C2294.942627,618.734375 2303.779053,614.569641 2312.156006,609.867554 
	C2329.998291,599.852051 2337.230957,583.712036 2335.938721,563.799011 
	C2335.113281,551.078674 2332.073975,538.844238 2324.457031,528.116211 
	C2308.837646,506.116669 2278.247803,506.130157 2264.270264,529.163452 
	C2258.518311,538.641724 2255.358643,549.876709 2252.094482,560.638611 
	C2247.089844,577.140015 2240.604248,592.546265 2227.624268,604.543579 
	C2200.239014,629.855286 2151.471680,626.404541 2128.088867,597.407166 
	C2112.205566,577.710022 2110.785645,547.671997 2124.335693,523.027161 
	C2136.990967,500.009613 2157.470947,486.077454 2180.175781,474.881653 
	C2205.270264,462.507507 2232.321289,456.794586 2259.809082,453.130219 
	C2293.404297,448.651733 2326.917969,449.422668 2360.255615,455.899780 
	C2386.442627,460.987610 2410.767090,470.373108 2432.260010,486.490662 
	C2461.843506,508.675323 2478.708252,538.981140 2488.261475,573.982849 
	C2495.147705,599.213501 2497.997559,624.920471 2497.982910,651.047119 
	C2497.961182,690.035522 2498.187012,729.024658 2498.459229,768.012329 
	C2498.601562,788.357788 2500.276611,808.586853 2504.273438,829.440674 
M2257.499268,728.715027 
	C2256.615967,730.867920 2255.558838,732.967285 2254.876465,735.182129 
	C2248.806152,754.884399 2248.135010,774.320740 2257.374268,793.434204 
	C2265.223877,809.672791 2278.786621,816.915283 2295.969482,817.018311 
	C2312.947510,817.120239 2324.580811,807.918030 2332.005859,792.917419 
	C2338.331543,780.137878 2341.339355,766.451416 2341.674561,752.440979 
	C2342.422607,721.181274 2342.379639,689.902527 2342.583740,658.631042 
	C2342.590576,657.567261 2341.782227,656.498108 2341.565674,655.958801 
	C2332.750244,662.677124 2324.505127,669.334595 2315.862305,675.428162 
	C2309.077881,680.211731 2301.697510,684.140991 2294.764404,688.725952 
	C2279.592285,698.759583 2266.327637,710.668213 2257.499268,728.715027 
z"/>
<path fill="none" opacity="1.000000" stroke="none" 
	d="
M387.679260,643.380371 
	C404.774536,578.277771 422.047485,514.059204 438.989197,449.750183 
	C439.907379,449.767120 440.825531,449.784027 441.743683,449.800964 
	C461.401062,520.573120 481.058441,591.345276 500.917450,662.843384 
	C461.138611,662.843384 422.374359,662.843384 382.192810,662.843384 
	C384.102600,656.055969 385.777069,650.104797 387.679260,643.380371 
z"/>
<path fill="none" opacity="1.000000" stroke="none" 
	d="
M2257.799316,728.020935 
	C2266.327637,710.668213 2279.592285,698.759583 2294.764404,688.725952 
	C2301.697510,684.140991 2309.077881,680.211731 2315.862305,675.428162 
	C2324.505127,669.334595 2332.750244,662.677124 2341.565674,655.958801 
	C2341.782227,656.498108 2342.590576,657.567261 2342.583740,658.631042 
	C2342.379639,689.902527 2342.422607,721.181274 2341.674561,752.440979 
	C2341.339355,766.451416 2338.331543,780.137878 2332.005859,792.917419 
	C2324.580811,807.918030 2312.947510,817.120239 2295.969482,817.018311 
	C2278.786621,816.915283 2265.223877,809.672791 2257.374268,793.434204 
	C2248.135010,774.320740 2248.806152,754.884399 2254.876465,735.182129 
	C2255.558838,732.967285 2256.615967,730.867920 2257.799316,728.020935 
z"/>
</svg>